HIERARCHY
ROOT Hips
{
  OFFSET -33.9132 29.2015 117.021
  CHANNELS 6 Xposition Yposition Zposition Zrotation Xrotation Yrotation
  JOINT LeftUpLeg
  {
    OFFSET 8.64259 1.95398 -2.38835
    CHANNELS 3 Zrotation Xrotation Yrotation
    JOINT LeftLeg
    {
      OFFSET 43.7702 0 0
      CHANNELS 3 Zrotation Xrotation Yrotation
      JOINT LeftFoot
      {
        OFFSET 40.6238 0 0
        CHANNELS 3 Zrotation Xrotation Yrotation
        JOINT LeftToeBase
        {
          OFFSET 12.7242 0 0
          CHANNELS 3 Zrotation Xrotation Yrotation
          End Site
          {
            OFFSET 0 0 0
          }
        }
      }
    }
  }
  JOINT RightUpLeg
  {
    OFFSET -8.2249 1.95398 -2.59336
    CHANNELS 3 Zrotation Xrotation Yrotation
    JOINT RightLeg
    {
      OFFSET 43.5653 0 0
      CHANNELS 3 Zrotation Xrotation Yrotation
      JOINT RightFoot
      {
        OFFSET 40.6238 0 0
        CHANNELS 3 Zrotation Xrotation Yrotation
        JOINT RightToeBase
        {
          OFFSET 12.7242 0 0
          CHANNELS 3 Zrotation Xrotation Yrotation
          End Site
          {
            OFFSET 0 0 0
          }
        }
      }
    }
  }
  JOINT Spine
  {
    OFFSET 0.165834 0.87714 6.61349
    CHANNELS 3 Zrotation Xrotation Yrotation
    JOINT Spine1
    {
      OFFSET 7.38963 1.71661e-005 0
      CHANNELS 3 Zrotation Xrotation Yrotation
      JOINT Spine2
      {
        OFFSET 11.9445 1.14441e-005 0
        CHANNELS 3 Zrotation Xrotation Yrotation
        JOINT Spine3
        {
          OFFSET 14.7254 4.19617e-005 0
          CHANNELS 3 Zrotation Xrotation Yrotation
          JOINT Spine4
          {
            OFFSET 10.9679 0 0
            CHANNELS 3 Zrotation Xrotation Yrotation
            JOINT RightShoulder
            {
              OFFSET 2.46616 -1.6653 3.69651
              CHANNELS 3 Zrotation Xrotation Yrotation
              JOINT RightArm
              {
                OFFSET 13.0012 0 0
                CHANNELS 3 Zrotation Xrotation Yrotation
                JOINT RightForeArm
                {
                  OFFSET 28.7848 1.62311e-005 0
                  CHANNELS 3 Zrotation Xrotation Yrotation
                  JOINT RightHand
                  {
                    OFFSET 26.5688 1.62095e-005 0
                    CHANNELS 3 Zrotation Xrotation Yrotation
                    End Site
                    {
                      OFFSET 0 0 0
                    }
                  }
                }
              }
            }
            JOINT LeftShoulder
            {
              OFFSET 2.38034 -1.29275 -3.7523
              CHANNELS 3 Zrotation Xrotation Yrotation
              JOINT LeftArm
              {
                OFFSET 16.3182 6.07031e-005 0
                CHANNELS 3 Zrotation Xrotation Yrotation
                JOINT LeftForeArm
                {
                  OFFSET 27.0901 0 0
                  CHANNELS 3 Zrotation Xrotation Yrotation
                  JOINT LeftHand
                  {
                    OFFSET 24.5451 1.51738e-005 0
                    CHANNELS 3 Zrotation Xrotation Yrotation
                    End Site
                    {
                      OFFSET 0 0 0
                    }
                  }
                }
              }
            }
            JOINT Neck
            {
              OFFSET 5.0226 -0.0266342 0
              CHANNELS 3 Zrotation Xrotation Yrotation
              JOINT Head
              {
                OFFSET 6.69364 2.86102e-005 0
                CHANNELS 3 Zrotation Xrotation Yrotation
                End Site
                {
                  OFFSET 0 0 0
                }
              }
            }
          }
        }
      }
    }
  }
}
MOTION
Frames:	17
Frame Time:	0.0416667
-311.111 89.665 287.382 97.1338 32.994 90.8713 -173.442 -28.3651 87.4026 -3.49401 -3.83093 0.761848 82.4245 14.2133 -1.8822 23.9933 -5.54186 6.81585 -177.611 23.8918 102.849 -15.2886 -14.549 0.0588016 68.79 -5.49904 -2.65167 26.8863 -0.149343 3.86104 0.560613 8.27967 -90.8265 10.3173 0.738901 -1.70549 -1.35462 0.663139 -1.73635 -23.8849 1.21725 -1.40466 -3.87225 1.21727 -1.40466 91.1557 -31.2271 -104.04 42.7899 10.6287 7.32335 -5.1646 -39.969 -5.37222 -14.784 1.30781 -15.8068 -88.6326 -46.4815 80.0747 -23.9214 -12.7073 -40.6255 -6.90325 30.2672 -2.64632 15.1881 -3.52393 -24.8304 5.46901 0.884579 -9.82341 -3.29901 2.70122 0.751546 
-305.852 90.0779 282.278 98.4518 46.1422 89.2612 -167.476 -23.955 97.0503 -17.227 14.8258 0.607965 77.81 12.8588 1.62486 34.4981 -1.74902 11.4994 178.749 25.7 99.244 -23.2163 -8.65683 1.67204 61.8795 -0.0480839 -4.0448 22.9714 1.45059 4.08975 -0.869689 8.18208 -91.0988 10.4877 -2.23642 -1.98218 -1.18249 -2.32146 -1.88183 -23.7153 -1.53744 -2.56246 -3.70265 -1.53748 -2.56247 91.6087 -30.4953 -103.395 43.3042 11.2012 10.5529 -5.04996 -38.1435 -5.30967 -12.3996 0.418836 -9.58818 -89.0099 -47.9001 79.7836 -25.4569 -11.3668 -38.9361 -7.76693 33.0578 -1.14769 14.583 -3.29945 -24.2349 6.05791 1.12728 -6.94735 -4.17135 2.44781 -0.14651 
-299.396 90.6512 276.169 99.3095 48.3052 89.2255 -167.998 -17.4615 98.9391 -34.1162 19.3879 2.61168 63.9967 3.18659 2.28535 30.1249 -1.35217 5.9425 177.106 24.3262 99.5996 -31.344 -6.3029 2.57099 61.473 0.401196 -0.942319 19.3756 3.41983 2.834 -0.973898 7.99471 -91.2665 10.8546 -2.52423 -2.28367 -0.81577 -2.62228 -2.17038 -23.3453 -1.72153 -2.93641 -3.33261 -1.72154 -2.93641 91.4275 -30.0269 -103.912 43.6779 11.6251 12.918 -4.85234 -34.7944 -5.21046 -10.1527 0.546663 -11.9303 -89.1577 -47.9834 79.5703 -25.9516 -7.8629 -33.7713 -9.47387 38.2018 -0.169438 10.3404 -2.03601 -22.0881 5.10193 0.789218 -5.53613 -5.30941 1.7835 0.460024 
-293.851 91.3014 270.911 102.277 48.6465 87.8526 -169.358 -7.13099 100.558 -53.0434 22.256 3.74342 51.7744 -5.28756 -0.34206 14.3823 -4.63307 -3.95174 176.338 19.1548 100.973 -35.5769 -7.31839 3.05821 66.1952 -3.45355 -3.39933 21.1767 2.78866 2.31991 -0.727857 8.19761 -91.2422 10.4532 -2.01947 -2.29 -1.21805 -2.11826 -2.19894 -23.7427 -1.23816 -2.79075 -3.73008 -1.23817 -2.79076 91.0667 -31.061 -104.27 44.8131 10.5539 9.43962 -4.89651 -35.5671 -5.2318 -10.3536 0.638408 -12.9805 -88.8424 -46.6192 79.7769 -28.2227 -7.86442 -30.8801 -9.78472 42.602 -0.0101321 10.5188 -1.08515 -15.5235 5.66738 -0.226697 -6.47434 -5.47145 0.969607 1.21903 
-289.351 92.3881 266.55 101.746 50.8821 87.6087 -172.717 7.07989 98.8519 -65.8849 15.8435 4.13593 59.0793 -0.427953 0.224308 7.77264 -9.43445 -1.42306 176.013 14.4518 100.441 -34.1714 -5.39525 3.32195 69.4778 -5.6318 -3.07201 23.5734 1.78111 2.10472 -0.584267 8.20091 -91.1854 10.4506 -1.70736 -2.20468 -1.22095 -1.80274 -2.12743 -23.7447 -0.96612 -2.61565 -3.73204 -0.966096 -2.61564 90.9411 -30.6143 -104.673 45.1061 8.95609 3.18228 -5.12555 -39.3569 -5.35064 -13.8596 1.2891 -16.3979 -89.1933 -48.4296 79.6137 -28.4033 -11.1375 -25.8886 -9.05364 39.6768 -0.0176164 9.95577 -0.760488 -13.5133 4.63612 -1.55914 -6.16929 -4.33069 -0.440476 1.05113 
-284.938 93.7096 262.314 100.743 48.647 85.7546 -173.096 16.9305 93.8454 -64.1152 8.67483 2.32444 67.4729 5.62729 1.9866 10.2268 -11.1012 3.038 176.804 9.10445 98.766 -31.4919 -7.05341 1.50346 71.7632 -6.66455 -2.80205 24.8262 1.36389 1.61442 -0.00281163 8.20061 -90.7564 10.4666 -0.352484 -1.47076 -1.20506 -0.416853 -1.45383 -23.7334 0.105788 -1.50869 -3.72076 0.105804 -1.5087 90.6311 -30.5823 -105.295 43.7919 7.68416 -3.83536 -5.2153 -40.744 -5.40076 -15.4768 1.91319 -19.9837 -88.6463 -48.7727 80.5159 -26.489 -13.3071 -16.563 -8.86343 34.6734 -0.0147646 5.27962 -0.562998 -17.226 2.45755 -2.70867 -6.9582 -3.02299 -1.55292 0.42593 
-280.269 94.6425 257.46 99.7746 46.8168 85.1006 -173.95 23.2226 91.0917 -51.0071 2.21173 0.787654 69.1465 6.71712 0.501758 12.9939 -10.9232 5.17666 176.856 2.538 96.9826 -27.2965 -6.36886 0.243543 75.0588 -7.39286 1.33378 23.7859 1.75281 1.88545 0.515546 8.22144 -90.4968 10.4346 0.799239 -1.05916 -1.23659 0.751849 -1.09331 -23.7718 1.0806 -0.769994 -3.75915 1.08061 -0.770005 90.7232 -28.9977 -105.687 43.4608 6.07208 -10.927 -5.12682 -39.3768 -5.3514 -22.622 2.66508 -18.8626 -88.2425 -49.2911 81.2261 -21.7433 -14.3312 -7.42331 -9.28877 28.1653 -0.0124475 5.48717 -0.713405 -17.4185 1.11257 -3.40988 -5.69409 -2.63424 -2.52121 -2.26057 
-275.514 94.2645 252 99.1066 45.1541 84.6116 -175.688 24.2753 89.1936 -29.4005 -0.797928 -0.312225 65.9475 5.29741 -1.8528 17.6217 -9.46346 7.30935 175.599 -3.44742 95.1922 -25.017 -9.73284 -0.0262504 78.3329 -9.38468 1.10912 24.6762 1.8404 0.206988 0.925556 8.2505 -90.3284 10.3791 1.69357 -0.799919 -1.29107 1.65673 -0.8737 -23.8347 1.85564 -0.253811 -3.82207 1.85566 -0.2538 89.9856 -28.0431 -107.561 40.2287 6.22712 -16.9395 -5.18437 -40.2804 -5.38366 -25.4595 3.04792 -18.8865 -88.1094 -50.9138 81.7255 -15.4079 -14.5815 1.45414 -9.40914 25.365 -0.0111911 6.10329 -0.906939 -17.5687 0.789763 -3.72245 -3.89054 -1.7492 -3.1422 -3.85819 
-270.16 92.9961 246.021 99.1523 43.5588 84.4905 -177.003 22.5668 89.2051 -8.42369 2.29673 -1.04271 62.5418 4.05055 -1.88508 16.9289 -9.60518 6.82812 174.426 -9.96741 93.5292 -23.2684 -12.2958 -0.346588 81.1734 -11.4305 0.866067 26.4746 1.13793 -0.266861 1.27836 8.32938 -90.266 10.2243 2.42561 -0.73508 -1.44464 2.39089 -0.841174 -23.998 2.53432 0.0283536 -3.98533 2.5343 0.028353 89.4594 -27.1638 -109.007 35.246 7.85411 -22.701 -5.47975 -44.541 -5.55956 -18.1417 2.95253 -24.2503 -87.7414 -50.7696 82.2472 -11.8834 -17.1025 7.53259 -8.48099 22.5415 -0.0104145 6.30337 -0.806046 -15.533 1.04752 -4.35197 -3.15638 -1.06998 -3.88767 -4.09025 
-264.129 91.2344 239.42 99.0114 40.7949 84.5287 -176.72 24.4947 89.2181 -8.77906 -1.41293 -1.84743 63.4675 2.83186 -3.73499 18.6646 -10.1501 9.50173 172.201 -16.5213 90.5434 -22.0548 -16.5695 -0.69611 82.4482 -13.5072 -0.218051 29.2568 -0.328962 0.447904 1.71766 8.34429 -90.2022 10.1993 3.33034 -0.683425 -1.46768 3.29702 -0.829493 -24.037 3.38159 0.350232 -4.02436 3.3816 0.350237 89.8986 -26.4374 -108.411 32.1292 8.96309 -27.49 -6.29739 -53.821 -6.13056 -15.4958 2.45731 -24.0504 -87.0583 -50.3235 83.1903 -9.56993 -19.0028 10.0533 -7.81565 22.1109 -0.0103122 5.27118 -0.399226 -12.2303 3.25664 -4.83424 -2.82699 -2.85092 -4.28193 -4.15817 
-257.399 91.2236 232.049 98.2529 38.0896 83.2111 -175.728 24.9341 87.6203 -16.2001 -0.0592949 -2.52899 55.7734 -2.6649 -3.22077 16.567 -9.83208 6.78948 169.065 -19.6803 85.2272 -23.6121 -21.3936 -2.12118 74.7289 -9.82561 -2.66185 39.5742 -5.2242 3.41482 1.97064 8.37446 -89.8804 10.1318 3.98135 -0.0983281 -1.53306 3.97314 -0.273747 -24.1149 3.82653 1.10458 -4.1022 3.82653 1.10458 90.3038 -25.876 -107.805 34.1588 7.3061 -29.3355 -5.64309 -46.6671 -5.6649 -20.7052 3.12417 -22.664 -87.2163 -48.7635 82.6915 -11.2029 -20.8147 9.41087 -7.01529 23.3243 -0.0108652 4.9742 -0.0819427 -9.04606 6.1415 -5.12283 -4.07277 -4.45108 -4.18545 -4.35459 
-250.658 91.7724 224.779 98.0765 37.2191 81.7416 -173.501 25.4164 85.6141 -27.7993 3.96326 -4.13437 59.9188 -0.846327 -1.2059 8.95941 -13.0392 4.78379 169.597 -15.5974 83.5402 -37.2265 -21.7982 -4.70209 63.003 -1.82485 -2.7903 39.5678 -6.00661 8.66649 1.66678 8.10766 -89.6336 10.6552 3.48814 0.410458 -1.0111 3.50282 0.256348 -23.5786 3.20337 1.44084 -3.56592 3.20338 1.44083 89.4325 -26.2591 -109.456 37.3065 5.68135 -27.0815 -5.6901 -47.2687 -5.69689 -18.4357 3.12123 -25.0216 -87.1424 -49.4368 82.918 -11.9574 -19.8379 10.826 -7.51977 22.1714 -0.0118242 3.83582 -0.0519619 -9.68774 5.2106 -3.77099 -3.82338 -6.06582 -2.8528 -5.33067 
-245.093 92.556 218.482 99.4368 36.3571 78.6996 -172.588 20.4913 82.8294 -32.4775 4.08156 -4.94451 66.0759 3.68552 1.59531 10.5484 -11.1923 3.44058 171.264 -5.264 81.3547 -56.9073 -21.3073 -6.10625 53.8858 4.23121 -0.340102 20.0124 1.60871 7.41369 1.33054 8.13305 -89.3466 10.5956 2.95054 1.03261 -1.07235 2.99311 0.901653 -23.6249 2.50375 1.87199 -3.61222 2.50377 1.872 89.3938 -28.5371 -108.556 39.3517 4.6686 -25.6643 -6.41111 -54.8718 -6.21682 -15.128 3.03863 -28.8369 -87.3101 -48.3501 82.4755 -16.0968 -19.3525 4.58155 -7.49996 27.0579 -0.0140721 2.33734 0.0474211 -11.6067 3.92777 -3.16414 -6.70947 -6.63683 -1.88614 -2.04963 
-240.085 93.7912 213.38 99.6137 35.9618 77.8959 -173.32 14.6176 81.6276 -31.531 2.5997 -4.85129 70.1407 6.12663 1.12681 12.9128 -10.7326 4.84365 174.642 4.75537 83.4302 -65.9888 -15.8225 -5.94465 61.0724 -1.00753 -0.597698 23.079 0.653401 6.56516 0.887104 8.1623 -89.3523 10.5387 2.06444 1.10222 -1.13093 2.11095 1.01026 -23.6716 1.63775 1.67175 -3.6589 1.63776 1.67175 89.9815 -26.8837 -108.047 45.2511 1.80929 -22.4749 -5.8562 -49.2344 -5.80874 -18.1587 2.96137 -24.2517 -87.2335 -49.4964 82.7903 -17.3508 -16.4414 -5.0742 -8.34239 32.6383 -0.0177666 4.44099 -0.32118 -14.3839 2.14065 -1.3175 -4.05008 -7.08177 -0.553067 -2.83547 
-234.979 95.502 208.164 100.123 35.3661 78.925 -174.295 6.8456 82.7528 -26.7935 1.69244 -4.01838 72.3114 7.19425 0.105919 15.7971 -10.5267 7.22921 177.129 12.2796 86.6661 -61.4377 -11.7429 -5.22856 66.7843 -5.24259 -3.1903 24.5215 0.356823 5.58459 0.616305 8.16043 -89.5426 10.5499 1.43779 0.782149 -1.12046 1.47083 0.718092 -23.6579 1.13626 1.1781 -3.64527 1.13627 1.17811 89.6558 -27.7388 -108.359 48.201 2.10142 -16.136 -5.58111 -45.8865 -5.6247 -22.4382 2.95147 -20.5872 -87.2561 -49.3067 82.7237 -16.21 -13.8438 -12.4904 -9.23744 34.0036 0.295435 10.078 -1.57772 -18.7483 -0.44843 0.772612 -2.68365 -7.03143 1.23328 -2.82204 
-229.988 96.3289 203.823 99.3954 38.0071 80.8468 -175.174 1.68059 83.2744 -23.1794 3.74645 -2.38182 74.0385 8.46251 1.16662 16.2092 -10.7179 7.95057 177.662 18.245 90.3783 -47.6654 -6.17165 -3.1742 67.6567 -5.68273 -2.6739 22.1317 2.40294 2.21313 0.151402 8.05787 -89.7993 10.7576 0.394099 0.362641 -0.913335 0.409686 0.344938 -23.4483 0.266898 0.464314 -3.43568 0.266894 0.464315 90.2076 -27.5347 -107.312 49.6783 3.55214 -9.3366 -5.67053 -47.0168 -5.68284 -23.1521 2.78615 -19.1456 -87.2395 -48.0644 82.5347 -14.8345 -12.4606 -18.2123 -7.1673 31.0654 -4.00901 12.0472 -2.53147 -22.7251 -1.83425 1.72635 -2.11596 -7.33394 2.0719 -2.37204 
-224.62 96.0398 199.231 99.1654 41.0435 81.1034 -175.4 -3.40392 83.7362 -21.4475 5.56374 -1.38707 78.1209 10.5523 0.449186 14.4163 -12.0778 8.34726 177.073 19.7185 90.5086 -26.8436 -7.14366 -0.938375 62.3834 -2.88091 -3.56234 24.5619 1.71379 0.825266 -0.172989 8.05044 -89.8532 10.7733 -0.276693 0.317525 -0.897624 -0.262456 0.329387 -23.4328 -0.359328 0.219691 -3.4202 -0.359341 0.219678 90.8383 -27.6971 -105.95 50.2131 5.63125 -2.10417 -5.62787 -46.4825 -5.65467 -22.5661 2.55138 -18.333 -87.3413 -45.4646 81.9041 -13.8566 -12.8573 -27.2792 -7.07392 29.6768 -4.63488 12.7222 -3.24204 -26.6155 -1.25727 1.59187 -3.33905 -7.96418 2.06123 -1.10061 
